<svg xmlns="http://www.w3.org/2000/svg" width="32" height="32" viewBox="0 0 32 32" aria-labelledby="title">

        <title id="title">LinkedIn icon</title>
<rect fill="lightcyan" width="32" height="32"/><circle fill="white" cx="8.8" cy="9" r="2"/>
    <line stroke="white" stroke-width="4" x1="8.8" y1="12.5" x2="8.8" y2="24.7"/>
    <path fill="white" d="M13.7,16.4c0-1.5,0-2.8-0.1-3.9h3.3l0.2,1.7h0.1c0.5-0.8,1.7-2,3.8-2c2.5,0,4.4,1.7,4.4,5.3v7.3h-3.8V18 c0-1.6-0.6-2.7-1.9-2.7c-1.1,0-1.7,0.7-2,1.4c-0.1,0.3-0.1,0.6-0.1,1v7.1h-3.8L13.7,16.4L13.7,16.4z"/>
</svg>