<?xml version="1.0" encoding="utf-8"?>
<!-- Generator: Adobe Illustrator 18.1.1, SVG Export Plug-In . SVG Version: 6.00 Build 0)  -->
<svg version="1.1" id="Capa_1" xmlns="http://www.w3.org/2000/svg" xmlns:xlink="http://www.w3.org/1999/xlink" x="0px" y="0px"
	 width="386.7px" height="150px" viewBox="-6 126 386.7 150" enable-background="new -6 126 386.7 150" xml:space="preserve">
<path fill="none" stroke="#343434" stroke-width="5" stroke-linecap="round" stroke-linejoin="round" d="M47.2,151.4
	c-20.2,6.8-34.7,25.9-34.7,48.3c0,28.2,22.8,51,51,51s51-22.8,51-51c0-8.3-2-16.1-5.5-23.1"/>
<path fill="none" stroke="#343434" stroke-width="5" stroke-linecap="round" stroke-linejoin="round" d="M36.6,196.9
	c-1.1,11.4,5,22.8,16,27.8C66.4,231,82.7,224.9,89,211c6.3-13.9,0.2-30.2-13.7-36.5c-4.1-1.8-8.4-2.6-12.6-2.4"/>
<path fill="none" stroke="#343434" stroke-width="5" stroke-linecap="round" stroke-linejoin="round" d="M33.1,183.5
	c-7,12.9-5.5,29.4,5.1,40.7c13.2,14.3,35.5,15.1,49.7,1.9s15.1-35.5,1.9-49.7c-3.9-4.2-8.6-7.2-13.6-9.1"/>
<path fill="none" stroke="#343434" stroke-width="5" stroke-linecap="round" stroke-linejoin="round" d="M36,166.8
	c-13.7,11.6-19.1,31-12.1,48.6c8.8,22,33.7,32.7,55.7,23.9c22-8.8,32.8-33.7,24-55.7c-2.6-6.5-6.6-12-11.5-16.3"/>
<g>
	<path d="M53,215.8c-0.8,0-1.6-0.3-2.2-0.9c-0.6-0.6-0.9-1.3-0.9-2.2v-0.1c0-1.2,0.4-2.3,1.3-3.2l16.4-19h-14
		c-0.8,0-1.6-0.3-2.2-0.9c-0.6-0.6-0.9-1.3-0.9-2.1c0-0.8,0.3-1.6,0.9-2.2c0.6-0.6,1.3-0.9,2.2-0.9h20.2c0.8,0,1.6,0.3,2.2,0.9
		c0.6,0.6,0.9,1.3,0.9,2.2v0.1c0,1.1-0.4,2.2-1.3,3.2l-16.4,19h14.6c0.8,0,1.6,0.3,2.2,0.9c0.6,0.6,0.9,1.3,0.9,2.2
		c0,0.8-0.3,1.6-0.9,2.1c-0.6,0.6-1.3,0.9-2.2,0.9H53z"/>
</g>
</svg>
