<?xml version="1.0" encoding="utf-8"?>
<!-- Generator: Adobe Illustrator 18.1.1, SVG Export Plug-In . SVG Version: 6.00 Build 0)  -->
<svg version="1.1" id="Capa_1" xmlns="http://www.w3.org/2000/svg" xmlns:xlink="http://www.w3.org/1999/xlink" x="0px" y="0px"
	 width="1190.6px" height="841.9px" viewBox="0 0 1190.6 841.9" enable-background="new 0 0 1190.6 841.9" xml:space="preserve">
<g>
	<defs>
		<rect id="SVGID_1_" width="1190.6" height="841.9"/>
	</defs>
	<clipPath id="SVGID_2_">
		<use xlink:href="#SVGID_1_"  overflow="visible"/>
	</clipPath>
	<g clip-path="url(#SVGID_2_)">
		<defs>
			<rect id="SVGID_3_" x="-0.1" y="0" width="1190.6" height="841.9"/>
		</defs>
		<clipPath id="SVGID_4_">
			<use xlink:href="#SVGID_3_"  overflow="visible"/>
		</clipPath>
		<g clip-path="url(#SVGID_4_)">
			
				<image overflow="visible" width="4961" height="3508" xlink:href="5C63178EB8BA027C.jpg"  transform="matrix(0.24 0 0 0.24 -8.886720e-02 -1.489258e-02)">
			</image>
		</g>
	</g>
</g>
<text transform="matrix(1 0 0 1 49.2808 444.5502)"><tspan x="0" y="0" fill="#FFFFFF" font-family="'Gotham-Ultra'" font-size="80">#</tspan><tspan x="39.8" y="0" fill="#FFFFFF" font-family="'Gotham-Ultra'" font-size="80" letter-spacing="-8">Y</tspan><tspan x="74.2" y="0" fill="#FFFFFF" font-family="'Gotham-Ultra'" font-size="80">oS</tspan><tspan x="157.6" y="0" fill="#FFFFFF" font-family="'Gotham-Ultra'" font-size="80" letter-spacing="-2">o</tspan><tspan x="199.2" y="0" fill="#FFFFFF" font-family="'Gotham-Ultra'" font-size="80">yZa</tspan><tspan x="319.7" y="0" fill="#FFFFFF" font-family="'Gotham-Ultra'" font-size="80" letter-spacing="-2">r</tspan><tspan x="343.8" y="0" fill="#FFFFFF" font-family="'Gotham-Ultra'" font-size="80">ag</tspan><tspan x="427.1" y="0" fill="#FFFFFF" font-family="'Gotham-Ultra'" font-size="80" letter-spacing="-1">o</tspan><tspan x="469.4" y="0" fill="#FFFFFF" font-family="'Gotham-Ultra'" font-size="80">zaEn</tspan><tspan x="626" y="0" fill="#FFFFFF" font-family="'Gotham-Ultra'" font-size="80">C</tspan><tspan x="671.7" y="0" fill="#FFFFFF" font-family="'Gotham-Ultra'" font-size="80">omún</tspan></text>
<text transform="matrix(1 0 0 1 509 330.89)" font-family="'MyriadPro-Regular'" font-size="12"> </text>
<path fill="none" stroke="#333333" stroke-width="5" stroke-linecap="round" stroke-linejoin="round" d="M454.2,119.5
	c-20.2,6.8-34.7,25.9-34.7,48.3c0,28.2,22.8,51,51,51s51-22.8,51-51c0-8.3-2-16.1-5.5-23.1"/>
</svg>
