<?xml version="1.0" encoding="utf-8"?>
<!-- Generator: Adobe Illustrator 18.1.1, SVG Export Plug-In . SVG Version: 6.00 Build 0)  -->
<svg version="1.1" id="Capa_1" xmlns="http://www.w3.org/2000/svg" xmlns:xlink="http://www.w3.org/1999/xlink" x="0px" y="0px"
	 width="386.7px" height="150px" viewBox="0 0 386.7 150" enable-background="new 0 0 386.7 150" xml:space="preserve">
<path fill="none" stroke="#343434" stroke-width="5" stroke-linecap="round" stroke-linejoin="round" d="M70.9,29.8
	c-20.2,6.8-34.7,25.9-34.7,48.3c0,28.2,22.8,51,51,51s51-22.8,51-51c0-8.3-2-16.1-5.5-23.1"/>
<path fill="none" stroke="#343434" stroke-width="5" stroke-linecap="round" stroke-linejoin="round" d="M60.3,75.4
	c-1.1,11.4,5,22.8,16,27.8c13.8,6.3,30.1,0.1,36.4-13.7C119,75.6,112.9,59.3,99,53c-4.1-1.8-8.4-2.6-12.6-2.4"/>
<path fill="none" stroke="#343434" stroke-width="5" stroke-linecap="round" stroke-linejoin="round" d="M56.8,62
	c-7,12.9-5.5,29.4,5.1,40.7c13.2,14.3,35.5,15.1,49.7,1.9s15.1-35.5,1.9-49.7c-3.9-4.2-8.6-7.2-13.6-9.1"/>
<path fill="none" stroke="#343434" stroke-width="5" stroke-linecap="round" stroke-linejoin="round" d="M59.7,45.2
	C46,56.8,40.6,76.2,47.6,93.8c8.8,22,33.7,32.7,55.7,23.9S136.1,84,127.3,62c-2.6-6.5-6.6-12-11.5-16.3"/>
<text transform="matrix(1 0 0 1 153.3337 79.7611)"><tspan x="0" y="0" fill="#FFFFFF" font-family="'MyriadPro-Regular'" font-size="42.511">Za</tspan><tspan x="44" y="0" fill="#FFFFFF" font-family="'MyriadPro-Regular'" font-size="42.511">r</tspan><tspan x="57.7" y="0" fill="#FFFFFF" font-family="'MyriadPro-Regular'" font-size="42.511">ag</tspan><tspan x="101.9" y="0" fill="#FFFFFF" font-family="'MyriadPro-Regular'" font-size="42.511">o</tspan><tspan x="125" y="0" fill="#FFFFFF" font-family="'MyriadPro-Regular'" font-size="42.511">za</tspan></text>
<text transform="matrix(1 0 0 1 148.0004 112.0944)"><tspan x="0" y="0" fill="#FFFFFF" font-family="'MyriadPro-Regular'" font-size="42.511">en </tspan><tspan x="53.9" y="0" fill="#FFFFFF" font-family="'MyriadPro-Regular'" font-size="42.511">C</tspan><tspan x="78.1" y="0" fill="#FFFFFF" font-family="'MyriadPro-Regular'" font-size="42.511">omún</tspan></text>
<text transform="matrix(1 0 0 1 79.2366 91.6836)" fill="#010202" font-family="'MyriadPro-Regular'" font-size="35.25">Z</text>
</svg>
