<svg xmlns="http://www.w3.org/2000/svg" xmlns:xlink="http://www.w3.org/1999/xlink" width="454" height="251.3" viewBox="0 0 454 251.3">
	<path fill="#fff" d="M110,152.8l18.3-59.1l50,44.8l16.2-8.2l-8.8,35.4C161,173,136.1,173.7,110,152.8z"/>
	<path fill="#fff" d="M195.8,160.3l7.7-35.3l93.8-50l40.7,46.7v5.2l-9.8-5.6l-7.9,40.8c-36.8,25.9-69,13.5-98.4-21 C214.1,150,205.4,156.2,195.8,160.3z"/>
	<polygon fill="#fff" points="115.5,71.2 179.8,129.4 291.3,69 212.4,19.3 200.2,26.4 195.8,50.4 190.1,52.6 192.9,35.8 182.5,35.2 177,60.5 173.1,61.7 170.6,60.2 176.7,34.3 170.3,30.3 163,55.6 159.3,52.9 160.6,46.8 "/>
	<polygon fill="#fff" points="172,26 184,26 192.6,32 180,32 "/>
	<path fill="none" stroke="#fff" stroke-width="10" d="M14.2,185.8c29.1,2.3,52.5-6.1,67.6-30.6 c39.3,40.5,86.8,40.7,139.1,17.4c52,43.1,87.8,20.6,124,0c27.4,20,54.4,24.6,81,14.5"/>
</svg>
