<svg version="1.1" id="Capa_1" xmlns="http://www.w3.org/2000/svg" xmlns:xlink="http://www.w3.org/1999/xlink" x="0px" y="0px"
	 width="1200px" height="600px" viewBox="0 0 1200 600" enable-background="new 0 0 1200 600" xml:space="preserve">
<g id="letras">
	<path id="OCTUWEB" fill="#EC6261" d="M340.3,528.5c0-69.5-103.2-69.5-103.2,0S340.3,598,340.3,528.5L340.3,528.5z M263.7,528.5
		c0-36.2,50.1-36.2,50.1,0S263.7,564.8,263.7,528.5L263.7,528.5z M353.4,528.1c0,34.1,26.1,51.4,51.8,51.4
		c21.5,0,43.8-11.4,47.6-39.6h-25.3c-2.5,10.5-11.4,16-22.3,16c-15.2,0-24.9-13.1-24.9-27.8c0-16.4,9.7-27.8,24.9-27.8
		c10.5,0,18.5,4.6,21.9,14.7h25.3c-3.8-27-26.5-38.3-47.2-38.3C379.5,476.7,353.8,494,353.4,528.1L353.4,528.1z M487.3,501.1v77.1
		h25.3v-77.1H537V478h-74.6v23.2C462.5,501.1,487.3,501.1,487.3,501.1z M592.2,556.8c-7.6,0-15.6-4.2-15.6-12.2V478h-24.4v67
		c0,21.9,19.4,35,40,35s39.6-13.1,39.6-35v-67h-24.4v66.6C607.4,552.5,599.8,556.8,592.2,556.8L592.2,556.8z M706.8,479.7L690,532.7
		h-0.4l-4.6-16.9L671.8,478h-26.1v3.8l35.8,97.7h14.3l16-48.4h0.4l16,48.4H743l35-97.7V478h-25.7l-12.6,37.9l-4.6,16.9h-0.4
		l-17.3-53.1H706.8z M855.9,478h-62.8v100.3h64v-22.7h-38.3v-17.7H853V515h-34.1v-13.9h37.1V478z M953.7,508.7
		c0-17.3-13.9-30.8-31.2-30.8h-43v100.3h47.2c20.6,0,31.2-13.9,31.6-31.6c0-8.8-3.8-16.4-12.2-20.6
		C950.7,522.2,953.7,515,953.7,508.7L953.7,508.7z M924.6,538.6c10.5,0,10.5,16.9,0,16.9h-20.2v-16.9H924.6z M920.4,501.1
		c10.5,0,10.1,16,0,16h-16v-16H920.4z"/>
</g>
<g id="logo">
	<g id="icono" transform="translate(45, 0)">
		<g id="octogono">
			<polygon id="Polygon-1" fill="none" stroke="#EC6261" stroke-width="2" points="542.9,12.9 699.5,78.1 764.6,234.6 699.5,391.2
				542.9,456.3 386.4,391.2 321.2,234.6 386.4,78.1 			"/>
			<polygon id="Polygon-2" fill="#EC6261" stroke="#FFFFFF" stroke-width="0.9" points="543.5,35.4 684.7,93.9 743.3,235.2
				684.7,376.4 543.5,435 402.3,376.4 343.7,235.2 402.3,93.9 			"/>
		</g>
		<path id="O" fill="#FFFFFF" d="M650.2,235.7c0-145.1-215.1-145.1-215.1,0S650.2,380.8,650.2,235.7L650.2,235.7z M461.4,235.7
			c0-112.8,162.6-112.8,162.6,0C624,347.9,461.4,347.9,461.4,235.7L461.4,235.7z M621.2,235.7c0-107.3-156.6-109.5-156.6,0
			C464.7,345.2,621.2,343,621.2,235.7L621.2,235.7z M490.4,235.7c0-75.5,105.1-75.5,105.1,0C595.5,311.8,490.4,311.8,490.4,235.7
			L490.4,235.7z"/>
	</g>
</g>
</svg>
