<svg xmlns="http://www.w3.org/2000/svg" xmlns:xlink="http://www.w3.org/1999/xlink" width="170" height="200" viewBox="0 0 170 200">
	<g id="letras">
		<path id="OCTUWEB" fill="#EC6261" d="M24,145.3c0-16.5-24.5-16.5-24.5,0S24,161.8,24,145.3L24,145.3z M5.8,145.3 c0-8.6,11.9-8.6,11.9,0C17.7,153.9,5.8,153.9,5.8,145.3L5.8,145.3z M27.1,145.2c0,8.1,6.2,12.2,12.3,12.2c5.1,0,10.4-2.7,11.3-9.4 h-6c-0.6,2.5-2.7,3.8-5.3,3.8c-3.6,0-5.9-3.1-5.9-6.6c0-3.9,2.3-6.6,5.9-6.6c2.5,0,4.4,1.1,5.2,3.5h6c-0.9-6.4-6.3-9.1-11.2-9.1 C33.3,133,27.2,137.1,27.1,145.2L27.1,145.2z M58.9,138.8v18.3h6v-18.3h5.8v-5.5H53v5.5C53,138.8,58.9,138.8,58.9,138.8z M83.8,152 c-1.8,0-3.7-1-3.7-2.9v-15.8h-5.8v15.9c0,5.2,4.6,8.3,9.5,8.3s9.4-3.1,9.4-8.3v-15.9h-5.8v15.8C87.4,151,85.6,152,83.8,152 L83.8,152z M111,133.7l-4,12.6h-0.1l-1.1-4l-3.1-9h-6.2v0.9l8.5,23.2h3.4l3.8-11.5h0.1l3.8,11.5h3.5l8.3-23.2v-0.9h-6.1l-3,9 l-1.1,4h-0.1l-4.1-12.6H111z M146.4,133.3h-14.9v23.8h15.2v-5.4h-9.1v-4.2h8.1v-5.4h-8.1v-3.3h8.8V133.3z M169.6,140.6 c0-4.1-3.3-7.3-7.4-7.3H152v23.8h11.2c4.9,0,7.4-3.3,7.5-7.5c0-2.1-0.9-3.9-2.9-4.9C168.9,143.8,169.6,142.1,169.6,140.6 L169.6,140.6z M162.7,147.7c2.5,0,2.5,4,0,4h-4.8v-4H162.7z M161.7,138.8c2.5,0,2.4,3.8,0,3.8h-3.8v-3.8H161.7z"/>
	</g>
	<g id="logo">
		<path fill="none" stroke="#EC6261" stroke-width="2" d="M87.3,39.9l28.6,11.9l11.9,28.6L115.9,109l-28.6,11.9L58.7,109L46.8,80.4 l11.9-28.6L87.3,39.9z"/>
		<path fill="#EC6261" stroke="#fff" stroke-width="0.9" d="M87.4,44l25.8,10.7l10.7,25.8l-10.7,25.8L87.4,117l-25.8-10.7 L50.9,80.5l10.7-25.8L87.4,44z"/>
		<path id="O" fill="#fff" d="M106.9,80.6c0-26.5-39.3-26.5-39.3,0S106.9,107.1,106.9,80.6L106.9,80.6z M72.4,80.6 c0-20.6,29.7-20.6,29.7,0C102.1,101.1,72.4,101.1,72.4,80.6L72.4,80.6z M101.6,80.6c0-19.6-28.6-20-28.6,0S101.6,100.2,101.6,80.6 L101.6,80.6z M77.7,80.6c0-13.8,19.2-13.8,19.2,0C96.9,94.5,77.7,94.5,77.7,80.6L77.7,80.6z"/>
	</g>
</svg>