<svg xmlns="http://www.w3.org/2000/svg" width="171.2px" height="135.9px" viewBox="0 0 171.2 135.9">
	<g id="letras">
		<path id="OCTUWEB_1_" fill="#EC6160" d="M24.5,123.5C24.5,107,0,107,0,123.5S24.5,140,24.5,123.5L24.5,123.5z M6.3,123.5 c0-8.6,11.9-8.6,11.9,0S6.3,132.1,6.3,123.5L6.3,123.5z M27.6,123.4c0,8.1,6.2,12.2,12.3,12.2c5.1,0,10.4-2.7,11.3-9.4h-6 c-0.6,2.5-2.7,3.8-5.3,3.8c-3.6,0-5.9-3.1-5.9-6.6c0-3.9,2.3-6.6,5.9-6.6c2.5,0,4.4,1.1,5.2,3.5h6c-0.9-6.4-6.3-9.1-11.2-9.1 C33.8,111.2,27.7,115.3,27.6,123.4L27.6,123.4z M59.4,117v18.3h6V117h5.8v-5.5H53.5v5.5C53.5,117,59.4,117,59.4,117z M84.3,130.2 c-1.8,0-3.7-1-3.7-2.9v-15.8h-5.8v15.9c0,5.2,4.6,8.3,9.5,8.3s9.4-3.1,9.4-8.3v-15.9h-5.8v15.8C87.9,129.2,86.1,130.2,84.3,130.2 L84.3,130.2z M111.5,111.9l-4,12.6h-0.1l-1.1-4l-3.1-9H97v0.9l8.5,23.2h3.4l3.8-11.5h0.1l3.8,11.5h3.5l8.3-23.2v-0.9h-6.1l-3,9 l-1.1,4h-0.1l-4.1-12.6H111.5z M146.9,111.5H132v23.8h15.2v-5.4h-9.1v-4.2h8.1v-5.4h-8.1V117h8.8V111.5z M170.1,118.8 c0-4.1-3.3-7.3-7.4-7.3h-10.2v23.8h11.2c4.9,0,7.4-3.3,7.5-7.5c0-2.1-0.9-3.9-2.9-4.9C169.4,122,170.1,120.3,170.1,118.8 L170.1,118.8z M163.2,125.9c2.5,0,2.5,4,0,4h-4.8v-4H163.2z M162.2,117c2.5,0,2.4,3.8,0,3.8h-3.8V117H162.2z"/>
	</g>
	<g id="logo">
		<path fill="none" stroke="#EC6160" stroke-width="2" d="M87.8,1.1L116.4,13l11.9,28.6l-11.9,28.6L87.8,82.1L59.2,70.2L47.3,41.6 L59.2,13L87.8,1.1z"/>
		<path fill="#EC6160" stroke="#fff" stroke-width="0.9" d="M87.9,5.2l25.8,10.7l10.7,25.8l-10.7,25.8L87.9,78.2L62.1,67.5 L51.4,41.7l10.7-25.8L87.9,5.2z"/>
		<path id="O_1_" fill="#fff" d="M107.4,41.8c0-26.5-39.3-26.5-39.3,0S107.4,68.3,107.4,41.8L107.4,41.8z M72.9,41.8 c0-20.6,29.7-20.6,29.7,0C102.6,62.3,72.9,62.3,72.9,41.8L72.9,41.8z M102.1,41.8c0-19.6-28.6-20-28.6,0S102.1,61.4,102.1,41.8 L102.1,41.8z M78.2,41.8c0-13.8,19.2-13.8,19.2,0C97.4,55.7,78.2,55.7,78.2,41.8L78.2,41.8z"/>
	</g>
</svg>